<svg width="38" height="54" viewBox="0 0 38 54" fill="none" xmlns="http://www.w3.org/2000/svg">
<path d="M28.1044 10.6976C30.2606 10.6976 32.0085 9.02082 32.0085 6.95245C32.0085 4.88408 30.2606 3.20734 28.1044 3.20734C25.9482 3.20734 24.2003 4.88408 24.2003 6.95245C24.2003 9.02082 25.9482 10.6976 28.1044 10.6976Z" stroke="#BE81D1" stroke-width="4" stroke-miterlimit="10"/>
<path d="M20.2826 16.6792L23.432 13.0656L25.9415 9.94324" stroke="#BE81D1" stroke-width="4" stroke-miterlimit="10"/>
<path d="M2.36175 13.2937C3.13578 9.34485 5.20762 5.7375 8.27372 3L21.6592 16.8676L35 31.0135C31.1377 34.3273 26.0779 36.0615 20.9009 35.8455C15.7239 35.6296 10.84 33.4808 7.29211 29.8578C3.78841 26.26 1.89079 21.4903 2.00486 16.568" stroke="#2E3191" stroke-width="4" stroke-miterlimit="10"/>
<path d="M11.9771 33.6458L12.981 46.0567" stroke="#2E3191" stroke-width="4" stroke-miterlimit="10"/>
<path d="M4.65967 51.5869H20.276" stroke="#2E3191" stroke-width="4" stroke-miterlimit="10"/>
</svg>
