<svg width="32" height="46" viewBox="0 0 32 46" fill="none" xmlns="http://www.w3.org/2000/svg">
<g clip-path="url(#clip0_38_164)">
<path d="M0.888916 12.3846V41.5592C0.888916 42.4977 1.26357 43.3977 1.93037 44.0613C2.59716 44.7249 3.50148 45.0977 4.44447 45.0977H27.5556C28.4986 45.0977 29.4029 44.7249 30.0697 44.0613C30.7365 43.3977 31.1111 42.4977 31.1111 41.5592V4.40537C31.1111 3.46692 30.7365 2.56689 30.0697 1.9033C29.4029 1.23971 28.4986 0.866913 27.5556 0.866913H4.44447C3.50148 0.866913 2.59716 1.23971 1.93037 1.9033C1.26357 2.56689 0.888916 3.46692 0.888916 4.40537V8.84615" stroke="#2E3191" stroke-width="4" stroke-miterlimit="10"/>
<path d="M23.1111 0.884613H8.88889C8.39797 0.884613 8 1.28067 8 1.76923C8 2.25779 8.39797 2.65384 8.88889 2.65384H23.1111C23.602 2.65384 24 2.25779 24 1.76923C24 1.28067 23.602 0.884613 23.1111 0.884613Z" stroke="#2E3191" stroke-width="4" stroke-miterlimit="10"/>
<path d="M19.5555 13.2692L10.6666 22.1154H23.1111L12.4444 32.7308" fill="#D0D2D3"/>
<path d="M19.5555 13.2692L10.6666 22.1154H23.1111L12.4444 32.7308" stroke="#C17DD6" stroke-width="3" stroke-linejoin="round"/>
</g>
<defs>
<clipPath id="clip0_38_164">
<rect width="32" height="46" fill="white"/>
</clipPath>
</defs>
</svg>
