<svg width="43" height="41" viewBox="0 0 43 41" fill="none" xmlns="http://www.w3.org/2000/svg">
<g clip-path="url(#clip0_36_126)">
<path d="M12.7656 11.9555V22.7628H4.70312C3.63397 22.7628 2.60858 22.3358 1.85258 21.5758C1.09657 20.8157 0.671875 19.7849 0.671875 18.7101V16.0082C0.671875 14.9334 1.09657 13.9026 1.85258 13.1425C2.60858 12.3825 3.63397 11.9555 4.70312 11.9555H12.7656Z" fill="#3C6FC2" stroke="white" stroke-width="3" stroke-miterlimit="10"/>
<path d="M36.8994 4.24185V30.1117C36.9006 30.7366 36.7379 31.3508 36.4276 31.8923C36.1173 32.4338 35.6704 32.8834 35.1321 33.1959C34.5937 33.5083 33.9829 33.6724 33.3613 33.6717C32.7397 33.671 32.1293 33.5054 31.5916 33.1918L12.7791 22.2494V12.0906L31.5916 1.16178C32.1293 0.848126 32.7397 0.682591 33.3613 0.681872C33.9829 0.681153 34.5937 0.845279 35.1321 1.15769C35.6704 1.47009 36.1173 1.91973 36.4276 2.46123C36.7379 3.00272 36.9006 3.61692 36.8994 4.24185Z" fill="#3C6FC2" stroke="white" stroke-width="3" stroke-miterlimit="10"/>
<path d="M36.9531 16.0082L37.0875 10.6046C38.513 10.6225 39.8731 11.209 40.8685 12.2351C41.8639 13.2611 42.4131 14.6427 42.3953 16.0758C42.3775 17.5089 41.7941 18.8762 40.7735 19.8769C39.7529 20.8776 38.3787 21.4298 36.9531 21.4119V16.0082Z" fill="#3C6FC2" stroke="white" stroke-width="3" stroke-miterlimit="10"/>
<path d="M3.35938 22.0873L3 35" stroke="white" stroke-width="3" stroke-miterlimit="10"/>
</g>
<defs>
<clipPath id="clip0_36_126">
<rect width="43" height="41" fill="white"/>
</clipPath>
</defs>
</svg>
